<svg xmlns="http://www.w3.org/2000/svg" width="65" height="65" viewBox="0 0 65 65" fill="none">
    <g clip-path="url(#clip0_24_16)">
        <path
            d="M32.5 0C26.0721 0 19.7886 1.90609 14.444 5.47724C9.09938 9.04838 4.93378 14.1242 2.47393 20.0628C0.0140818 26.0014 -0.629527 32.5361 0.624493 38.8404C1.87851 45.1448 4.97384 50.9358 9.51904 55.481C14.0643 60.0262 19.8552 63.1215 26.1596 64.3755C32.464 65.6295 38.9986 64.9859 44.9372 62.5261C50.8758 60.0662 55.9516 55.9006 59.5228 50.556C63.0939 45.2114 65 38.9279 65 32.5C64.9907 23.8833 61.5636 15.6222 55.4707 9.52932C49.3778 3.43641 41.1167 0.0093196 32.5 0ZM55.919 18.9583H47.1954C45.2426 14.4327 42.6714 10.1998 39.5552 6.38083C46.452 8.25751 52.3313 12.7765 55.919 18.9583ZM44.6875 32.5C44.6653 35.2575 44.2308 37.9961 43.3983 40.625H21.6017C20.7693 37.9961 20.3347 35.2575 20.3125 32.5C20.3347 29.7425 20.7693 27.0039 21.6017 24.375H43.3983C44.2308 27.0039 44.6653 29.7425 44.6875 32.5ZM23.7738 46.0417H41.2263C38.9275 50.5801 35.9888 54.7648 32.5 58.4675C29.01 54.7658 26.0711 50.581 23.7738 46.0417ZM23.7738 18.9583C26.0725 14.4199 29.0113 10.2352 32.5 6.5325C35.99 10.2342 38.9289 14.4191 41.2263 18.9583H23.7738ZM25.4583 6.38083C22.3374 10.199 19.7616 14.4319 17.8046 18.9583H9.08106C12.6719 12.7737 18.5566 8.25433 25.4583 6.38083ZM6.66522 24.375H15.9792C15.2771 27.0269 14.9131 29.7568 14.8958 32.5C14.9131 35.2432 15.2771 37.9732 15.9792 40.625H6.66522C5.00052 35.3362 5.00052 29.6638 6.66522 24.375ZM9.08106 46.0417H17.8046C19.7616 50.5681 22.3374 54.801 25.4583 58.6192C18.5566 56.7457 12.6719 52.2263 9.08106 46.0417ZM39.5552 58.6192C42.6714 54.8002 45.2426 50.5673 47.1954 46.0417H55.919C52.3313 52.2235 46.452 56.7425 39.5552 58.6192ZM58.3348 40.625H49.0208C49.723 37.9732 50.087 35.2432 50.1042 32.5C50.087 29.7568 49.723 27.0269 49.0208 24.375H58.3294C59.9941 29.6638 59.9941 35.3362 58.3294 40.625H58.3348Z"
            fill="#F78FAA" fill-opacity="0.63" />
    </g>
    <defs>
        <clipPath id="clip0_24_16">
            <rect width="65" height="65" fill="white" />
        </clipPath>
    </defs>
</svg>