<svg xmlns="http://www.w3.org/2000/svg" width="81" height="81" viewBox="0 0 81 81" fill="none">
    <g clip-path="url(#clip0_5_93)">
      <path d="M64.1547 7.48808V0.821411L57.4881 0.821411V7.48808L50.8214 7.48808V0.821411L44.1547 0.821411V7.48808H37.4881V0.821411L30.8214 0.821411V7.48808H24.1547V0.821411L17.4881 0.821411V7.48808H10.8214L10.8214 70.8214C10.8214 73.4736 11.875 76.0171 13.7503 77.8925C15.6257 79.7678 18.1692 80.8214 20.8214 80.8214H60.8214C63.4736 80.8214 66.0171 79.7678 67.8925 77.8925C69.7678 76.0171 70.8214 73.4736 70.8214 70.8214V7.48808L64.1547 7.48808ZM64.1547 70.8214C64.1547 71.7055 63.8036 72.5533 63.1784 73.1784C62.5533 73.8036 61.7055 74.1547 60.8214 74.1547H20.8214C19.9374 74.1547 19.0895 73.8036 18.4644 73.1784C17.8393 72.5533 17.4881 71.7055 17.4881 70.8214L17.4881 14.1547L64.1547 14.1547V70.8214ZM57.4881 30.8214L24.1547 30.8214V24.1547L57.4881 24.1547V30.8214ZM57.4881 44.1547H24.1547V37.4881H57.4881V44.1547ZM44.1547 57.4881H24.1547V50.8214H44.1547V57.4881Z" fill="#F78FAA" fill-opacity="0.63"/>
    </g>
    <defs>
      <clipPath id="clip0_5_93">
        <rect width="80" height="80" fill="white" transform="translate(0.821411 0.821411)"/>
      </clipPath>
    </defs>
  </svg>