<svg xmlns="http://www.w3.org/2000/svg" width="80" height="80" viewBox="0 0 80 80" fill="none">
    <g clip-path="url(#clip0_29_23)">
        <path
            d="M3.04 20.1033C0.840002 17.5666 -0.196665 14.4533 0.0300017 11.2333C0.260002 8.00994 1.72667 5.07661 4.16333 2.96661C6.60333 0.853275 9.69667 -0.173392 12.9367 0.0499416C16.1533 0.279942 19.09 1.74661 21.2 4.18327L34.01 19.4299L29.28 24.1599L16.13 8.50661C15.22 7.45661 13.9067 6.79994 12.4633 6.69994C11.0033 6.60661 9.62 7.05661 8.53333 7.99994C7.44 8.94661 6.78333 10.2633 6.68 11.7033C6.57667 13.1499 7.04 14.5433 7.98333 15.6299L22.4433 30.9933L17.73 35.7066L3.04 20.1033ZM80.1567 79.9999H58.9833C51.7567 79.9999 43.3567 73.4466 43.3567 64.9999C43.3567 57.1499 50.5067 49.9999 58.3567 49.9999C72.61 49.9999 77.1667 68.1166 79.1133 75.8533L80.1567 79.9999ZM71.5333 73.3333C68.98 64.5433 65.2633 56.6666 58.3567 56.6666C54.5833 56.6666 50.0233 60.3833 50.0233 64.9999C50.0233 69.4099 55.0333 73.3333 58.9833 73.3333H71.5333ZM76.49 20.6133L17.1 79.9999H0.023335V62.9199L59.41 3.53327C63.9667 -1.02339 71.9367 -1.02006 76.4867 3.53327H76.49C78.7667 5.81661 80.02 8.84661 80.02 12.0733C80.02 15.2999 78.7667 18.3366 76.4833 20.6133H76.49ZM58.4833 29.1899L50.83 21.5366L6.69 65.6833V73.3333H14.34L58.48 29.1933L58.4833 29.1899ZM73.3567 12.0733C73.3567 10.6266 72.7967 9.26661 71.7767 8.24661C69.7367 6.20994 66.1633 6.20994 64.1267 8.24661L55.5467 16.8266L63.2 24.4799L71.78 15.8999C72.8 14.8799 73.36 13.5233 73.36 12.0766L73.3567 12.0733Z"
            fill="#F78FAA" fill-opacity="0.63" />
    </g>
    <defs>
        <clipPath id="clip0_29_23">
            <rect width="80" height="80" fill="white" />
        </clipPath>
    </defs>
</svg>