<svg xmlns="http://www.w3.org/2000/svg" width="80" height="80" viewBox="0 0 80 80" fill="none">
    <g clip-path="url(#clip0_5_81)">
        <path
            d="M32.666 54.2033C42.3714 50.0939 50.0892 42.3582 54.176 32.6433L42.8427 21.29L63.7093 0.406667L74.2793 10.9733C76.1127 12.8171 77.5622 15.0062 78.544 17.4138C79.5258 19.8215 80.0205 22.3999 79.9993 25C79.9993 49.16 49.1594 80 24.9993 80C22.3996 80.0227 19.8212 79.5288 17.4138 78.5469C15.0065 77.5649 12.8182 76.1146 10.976 74.28L0.406012 63.71L21.2893 42.8267L32.666 54.2033ZM15.6927 69.5667C16.9168 70.7801 18.37 71.7381 19.9677 72.3847C21.5655 73.0313 23.2758 73.3538 24.9993 73.3333C45.776 73.3333 73.3327 45.7767 73.3327 25C73.3523 23.2761 73.0295 21.5655 72.3829 19.9673C71.7363 18.3691 70.7788 16.9153 69.566 15.69L63.7093 9.83333L52.2527 21.29L62.036 31.0733L61.2194 33.12C58.8152 39.551 55.0568 45.3902 50.1988 50.2418C45.3409 55.0935 39.4968 58.8442 33.0627 61.24L31.0427 62.01L21.2893 52.2533L9.83268 63.71L15.6927 69.5667ZM33.3327 6.66667V0C24.4951 0.00970532 16.0223 3.52472 9.77318 9.77383C3.52407 16.0229 0.00905536 24.4958 -0.000649967 33.3333H6.66601C6.67395 26.2633 9.48602 19.4852 14.4853 14.4859C19.4845 9.48667 26.2627 6.67461 33.3327 6.66667ZM33.3327 20V13.3333C28.03 13.3386 22.946 15.4475 19.1964 19.197C15.4468 22.9466 13.338 28.0306 13.3327 33.3333H19.9994C19.9994 29.7971 21.4041 26.4057 23.9046 23.9052C26.4051 21.4048 29.7965 20 33.3327 20Z"
            fill="#F78FAA" fill-opacity="0.63" />
    </g>
    <defs>
        <clipPath id="clip0_5_81">
            <rect width="80" height="80" fill="white" transform="matrix(-1 0 0 1 80 0)" />
        </clipPath>
    </defs>
</svg>