<svg xmlns="http://www.w3.org/2000/svg" width="80" height="80" viewBox="0 0 80 80" fill="none">
    <g opacity="0.8" clip-path="url(#clip0_5_85)">
        <path
            d="M76.08 57.2633L22.7367 3.9233C18.8533 0.0399644 13.2867 -1.07337 8.22333 1.03663C3.15 3.1333 0 7.84663 0 13.34V63.31C0 72.5133 7.48667 80 16.69 80H66.66C72.1467 80 76.8633 76.85 78.9633 71.7766C81.0633 66.7033 79.96 61.1466 76.08 57.2633ZM72.81 69.23C71.7433 71.8 69.4467 73.3333 66.6633 73.3333H16.69C11.1633 73.3333 6.66667 68.8366 6.66667 63.31V13.34C6.66667 10.5566 8.2 8.25996 10.7733 7.1933C11.6433 6.8333 12.5267 6.65663 13.3967 6.65663C15.0933 6.65663 16.7233 7.3333 18.0233 8.63663L23.3933 14.0066L17.0333 20.3666C15.73 21.67 15.73 23.7766 17.0333 25.08C17.6833 25.73 18.5367 26.0566 19.39 26.0566C20.2433 26.0566 21.0967 25.73 21.7467 25.08L28.1067 18.72L32.9933 23.6066L26.6333 29.9666C25.33 31.27 25.33 33.3766 26.6333 34.68C27.2833 35.33 28.1367 35.6566 28.99 35.6566C29.8433 35.6566 30.6967 35.33 31.3467 34.68L37.7067 28.32L42.4233 33.0333L36.0633 39.3933C34.76 40.6966 34.76 42.8033 36.0633 44.1066C36.7133 44.7566 37.5667 45.0833 38.42 45.0833C39.2733 45.0833 40.1267 44.7566 40.7767 44.1066L47.1367 37.7466L51.85 42.46L45.49 48.82C44.1867 50.1233 44.1867 52.23 45.49 53.5333C46.14 54.1833 46.9933 54.51 47.8467 54.51C48.7 54.51 49.5533 54.1833 50.2033 53.5333L56.5633 47.1733L61.2767 51.8866L54.9167 58.2466C53.6133 59.55 53.6133 61.6566 54.9167 62.96C55.5667 63.61 56.42 63.9366 57.2733 63.9366C58.1267 63.9366 58.98 63.61 59.63 62.96L65.99 56.6L71.36 61.97C73.3267 63.94 73.8667 66.65 72.8033 69.2233L72.81 69.23ZM35.6933 54.31C36.6467 55.2633 36.9333 56.6966 36.4167 57.9433C35.9 59.19 34.6833 60 33.3367 60H23.3367C21.4967 60 20.0033 58.51 20.0033 56.6666V46.6666C20.0033 45.32 20.8167 44.1 22.06 43.5866C23.3067 43.0666 24.74 43.3566 25.6933 44.31L35.6933 54.31Z"
            fill="#F78FAA" fill-opacity="0.63" />
    </g>
    <defs>
        <clipPath id="clip0_5_85">
            <rect width="80" height="80" fill="white" />
        </clipPath>
    </defs>
</svg>