<svg xmlns="http://www.w3.org/2000/svg" width="65" height="65" viewBox="0 0 65 65" fill="none">
    <g clip-path="url(#clip0_23_10)">
      <path d="M2.70833 12.8646H10.1183C10.6996 15.0034 11.9686 16.8916 13.7294 18.2377C15.4903 19.5839 17.6451 20.3132 19.8616 20.3132C22.078 20.3132 24.2329 19.5839 25.9937 18.2377C27.7545 16.8916 29.0235 15.0034 29.6048 12.8646H62.2917C63.01 12.8646 63.6988 12.5792 64.2067 12.0713C64.7147 11.5634 65 10.8745 65 10.1562C65 9.43795 64.7147 8.74908 64.2067 8.24117C63.6988 7.73326 63.01 7.44792 62.2917 7.44792H29.6048C29.0235 5.30906 27.7545 3.42091 25.9937 2.07477C24.2329 0.728628 22.078 -0.000701904 19.8616 -0.000701904C17.6451 -0.000701904 15.4903 0.728628 13.7294 2.07477C11.9686 3.42091 10.6996 5.30906 10.1183 7.44792H2.70833C1.99004 7.44792 1.30116 7.73326 0.793252 8.24117C0.285341 8.74908 0 9.43795 0 10.1562C0 10.8745 0.285341 11.5634 0.793252 12.0713C1.30116 12.5792 1.99004 12.8646 2.70833 12.8646ZM19.8602 5.41667C20.7976 5.41667 21.714 5.69464 22.4934 6.21543C23.2728 6.73622 23.8803 7.47644 24.239 8.34249C24.5977 9.20853 24.6916 10.1615 24.5087 11.0809C24.3258 12.0003 23.8744 12.8448 23.2116 13.5076C22.5488 14.1705 21.7042 14.6219 20.7849 14.8048C19.8655 14.9876 18.9125 14.8938 18.0464 14.5351C17.1804 14.1763 16.4402 13.5688 15.9194 12.7894C15.3986 12.01 15.1206 11.0937 15.1206 10.1562C15.1221 8.89967 15.6219 7.69497 16.5104 6.80644C17.3989 5.91791 18.6036 5.4181 19.8602 5.41667Z" fill="#F78FAA" fill-opacity="0.63"/>
      <path d="M62.2917 29.7917H54.8817C54.3013 27.6523 53.0329 25.7635 51.2722 24.4168C49.5115 23.0701 47.3565 22.3404 45.1398 22.3404C42.9231 22.3404 40.7681 23.0701 39.0074 24.4168C37.2467 25.7635 35.9783 27.6523 35.3979 29.7917H2.70833C1.99004 29.7917 1.30116 30.077 0.793252 30.5849C0.285341 31.0928 0 31.7817 0 32.5C0 33.2183 0.285341 33.9072 0.793252 34.4151C1.30116 34.923 1.99004 35.2083 2.70833 35.2083H35.3979C35.9783 37.3477 37.2467 39.2365 39.0074 40.5832C40.7681 41.9299 42.9231 42.6596 45.1398 42.6596C47.3565 42.6596 49.5115 41.9299 51.2722 40.5832C53.0329 39.2365 54.3013 37.3477 54.8817 35.2083H62.2917C63.01 35.2083 63.6988 34.923 64.2067 34.4151C64.7147 33.9072 65 33.2183 65 32.5C65 31.7817 64.7147 31.0928 64.2067 30.5849C63.6988 30.077 63.01 29.7917 62.2917 29.7917ZM45.1398 37.2396C44.2024 37.2396 43.286 36.9616 42.5066 36.4408C41.7272 35.92 41.1197 35.1798 40.761 34.3137C40.4023 33.4477 40.3084 32.4947 40.4913 31.5753C40.6742 30.656 41.1256 29.8114 41.7884 29.1486C42.4512 28.4858 43.2958 28.0343 44.2151 27.8515C45.1345 27.6686 46.0875 27.7625 46.9536 28.1212C47.8196 28.4799 48.5598 29.0874 49.0806 29.8668C49.6014 30.6462 49.8794 31.5626 49.8794 32.5C49.8779 33.7566 49.3781 34.9613 48.4896 35.8498C47.6011 36.7383 46.3964 37.2381 45.1398 37.2396Z" fill="#F78FAA" fill-opacity="0.63"/>
      <path d="M62.2917 52.1354H29.6048C29.0235 49.9966 27.7545 48.1084 25.9937 46.7623C24.2329 45.4161 22.078 44.6868 19.8616 44.6868C17.6451 44.6868 15.4903 45.4161 13.7294 46.7623C11.9686 48.1084 10.6996 49.9966 10.1183 52.1354H2.70833C1.99004 52.1354 1.30116 52.4208 0.793252 52.9287C0.285341 53.4366 0 54.1255 0 54.8438C0 55.562 0.285341 56.2509 0.793252 56.7588C1.30116 57.2667 1.99004 57.5521 2.70833 57.5521H10.1183C10.6996 59.6909 11.9686 61.5791 13.7294 62.9252C15.4903 64.2714 17.6451 65.0007 19.8616 65.0007C22.078 65.0007 24.2329 64.2714 25.9937 62.9252C27.7545 61.5791 29.0235 59.6909 29.6048 57.5521H62.2917C63.01 57.5521 63.6988 57.2667 64.2067 56.7588C64.7147 56.2509 65 55.562 65 54.8438C65 54.1255 64.7147 53.4366 64.2067 52.9287C63.6988 52.4208 63.01 52.1354 62.2917 52.1354ZM19.8602 59.5833C18.9228 59.5833 18.0065 59.3054 17.227 58.7846C16.4476 58.2638 15.8401 57.5236 15.4814 56.6575C15.1227 55.7915 15.0288 54.8385 15.2117 53.9191C15.3946 52.9997 15.846 52.1552 16.5088 51.4924C17.1717 50.8295 18.0162 50.3781 18.9356 50.1952C19.855 50.0124 20.8079 50.1062 21.674 50.4649C22.54 50.8237 23.2802 51.4312 23.801 52.2106C24.3218 52.99 24.5998 53.9064 24.5998 54.8438C24.5976 56.1001 24.0976 57.3044 23.2092 58.1928C22.3208 59.0811 21.1166 59.5812 19.8602 59.5833Z" fill="#F78FAA" fill-opacity="0.63"/>
    </g>
    <defs>
      <clipPath id="clip0_23_10">
        <rect width="65" height="65" fill="white"/>
      </clipPath>
    </defs>
  </svg>