<svg xmlns="http://www.w3.org/2000/svg" width="67" height="67" viewBox="0 0 67 67" fill="none">
  <g clip-path="url(#clip0_5_89)">
    <path d="M66.5422 24.5499C65.9711 22.7323 64.8303 21.1466 63.2883 20.0275C61.7464 18.9084 59.8853 18.3152 57.9801 18.3357H45.7833L42.0788 6.78933C41.4962 4.97184 40.3515 3.38633 38.8097 2.26143C37.2678 1.13653 35.4086 0.53038 33.5 0.53038C31.5914 0.53038 29.7322 1.13653 28.1903 2.26143C26.6485 3.38633 25.5038 4.97184 24.9212 6.78933L21.2167 18.3357H9.01986C7.12082 18.3384 5.27119 18.9411 3.73518 20.0579C2.19917 21.1746 1.05535 22.7481 0.467095 24.5538C-0.121163 26.3594 -0.123767 28.3048 0.459656 30.112C1.04308 31.9192 2.18268 33.4958 3.7157 34.6167L13.6429 41.875L9.86853 53.5637C9.25858 55.3766 9.25086 57.338 9.8465 59.1557C10.4421 60.9733 11.6093 62.5497 13.1739 63.65C14.7117 64.7856 16.5752 65.3939 18.4868 65.3844C20.3985 65.3748 22.2558 64.7479 23.7822 63.597L33.5 56.4447L43.2206 63.5886C44.7556 64.7177 46.6091 65.3309 48.5146 65.3402C50.4201 65.3495 52.2795 64.7543 53.8255 63.6403C55.3714 62.5262 56.5243 60.9506 57.1183 59.14C57.7123 57.3294 57.7169 55.3771 57.1315 53.5637L53.3571 41.875L63.2954 34.6167C64.846 33.5099 65.999 31.9333 66.5837 30.1203C67.1684 28.3072 67.1539 26.354 66.5422 24.5499ZM60.0013 30.1081L48.4326 38.5641C47.9574 38.9107 47.6039 39.3986 47.4224 39.9581C47.2409 40.5175 47.2408 41.12 47.422 41.6796L51.8189 55.275C52.0414 55.9646 52.0395 56.7069 51.8135 57.3953C51.5875 58.0837 51.149 58.6827 50.5611 59.1062C49.9731 59.5297 49.2661 59.7559 48.5415 59.7522C47.817 59.7485 47.1123 59.5151 46.5287 59.0856L35.1527 50.7106C34.6735 50.3587 34.0945 50.1689 33.5 50.1689C32.9055 50.1689 32.3265 50.3587 31.8473 50.7106L20.4713 59.0856C19.8881 59.5209 19.1814 59.7591 18.4536 59.7657C17.7259 59.7723 17.015 59.5469 16.424 59.1223C15.833 58.6977 15.3925 58.0959 15.1665 57.4042C14.9406 56.7124 14.9408 55.9666 15.1671 55.275L19.5779 41.6796C19.7592 41.12 19.759 40.5175 19.5776 39.9581C19.3961 39.3986 19.0425 38.9107 18.5674 38.5641L6.9987 30.1081C6.41609 29.6815 5.98318 29.0818 5.76183 28.3944C5.54047 27.7071 5.54197 26.9674 5.76613 26.281C5.99029 25.5946 6.42564 24.9966 7.00998 24.5724C7.59433 24.1482 8.29778 23.9195 9.01986 23.919H23.2574C23.8484 23.919 24.4242 23.7314 24.9018 23.3832C25.3794 23.035 25.7342 22.5443 25.915 21.9816L30.2421 8.49504C30.4642 7.8049 30.8996 7.20303 31.4855 6.77607C32.0715 6.34911 32.7778 6.11907 33.5028 6.11907C34.2278 6.11907 34.9341 6.34911 35.52 6.77607C36.106 7.20303 36.5413 7.8049 36.7634 8.49504L41.0905 21.9816C41.2714 22.5443 41.6262 23.035 42.1038 23.3832C42.5814 23.7314 43.1572 23.919 43.7482 23.919H57.9857C58.7078 23.9195 59.4112 24.1482 59.9956 24.5724C60.5799 24.9966 61.0153 25.5946 61.2394 26.281C61.4636 26.9674 61.4651 27.7071 61.2437 28.3944C61.0224 29.0818 60.5895 29.6815 60.0069 30.1081H60.0013Z" fill="#F78FAA" fill-opacity="0.63"/>
  </g>
  <defs>
    <clipPath id="clip0_5_89">
      <rect width="67" height="67" fill="white"/>
    </clipPath>
  </defs>
</svg>