<svg xmlns="http://www.w3.org/2000/svg" width="80" height="80" viewBox="0 0 80 80" fill="none">
    <g clip-path="url(#clip0_29_29)">
        <path
            d="M70 13.3333H60V10C60 4.48667 55.5133 0 50 0H10C4.48667 0 0 4.48667 0 10V59.5133C0 62.16 1.45 64.58 3.78 65.8267C4.84 66.3967 6.00333 66.6767 7.16333 66.6767C8.55 66.6767 9.93333 66.2733 11.13 65.4767L20 59.5633V70H55.6567L68.87 78.81C70.07 79.61 71.45 80.0133 72.8367 80.0133C73.9967 80.0133 75.1567 79.73 76.22 79.16C78.5533 77.9133 80 75.4933 80 72.8467V23.3333C80 17.82 75.5133 13.3333 70 13.3333ZM7.43333 59.93C7.37 59.97 7.18333 60.09 6.92667 59.9533C6.66333 59.8133 6.66333 59.59 6.66333 59.5167V10C6.66333 8.16 8.16 6.66667 9.99667 6.66667H49.9967C51.8333 6.66667 53.33 8.16 53.33 10V50H22.3233L7.43333 59.93ZM73.3333 72.85C73.3333 72.92 73.3333 73.1467 73.07 73.2867C72.8067 73.4233 72.6267 73.3033 72.5667 73.2633L57.6767 63.3333H26.6667V56.6667H60V20H70C71.8367 20 73.3333 21.4933 73.3333 23.3333V72.85Z"
            fill="#F78FAA" fill-opacity="0.63" />
    </g>
    <defs>
        <clipPath id="clip0_29_29">
            <rect width="80" height="80" fill="white" />
        </clipPath>
    </defs>
</svg>