<svg xmlns="http://www.w3.org/2000/svg" width="65" height="65" viewBox="0 0 65 65" fill="none">
    <path fill-rule="evenodd" clip-rule="evenodd"
        d="M55.5323 9.44667C49.4201 3.35833 41.2941 0.00270833 32.6374 0C14.7988 0 0.280301 14.4462 0.272137 32.2075C0.269416 37.8842 1.76073 43.4254 4.59368 48.3112L0 65L17.1555 60.5204C21.8826 63.0879 27.2056 64.4394 32.6211 64.4421H32.6347C50.4706 64.4421 64.9918 49.9931 65 32.2319C65.0054 23.6275 61.6418 15.5323 55.5323 9.44667ZM32.6374 59.001H32.6265C27.7988 59.001 23.0664 57.7092 18.9353 55.269L17.9529 54.6894L7.77224 57.3462L10.4909 47.4662L9.85137 46.4533C7.15721 42.1904 5.73665 37.264 5.73938 32.2075C5.74482 17.4471 17.8141 5.43833 32.651 5.43833C39.8355 5.43833 46.5899 8.22792 51.668 13.2871C56.7461 18.349 59.5409 25.0737 59.5382 32.2265C59.53 46.9923 47.4635 59.001 32.6374 59.001ZM47.3927 38.9512C46.5845 38.5477 42.6085 36.6004 41.8656 36.3323C41.1254 36.0642 40.5866 35.9287 40.045 36.7331C39.5035 37.5375 37.9577 39.3521 37.4842 39.891C37.0134 40.4273 36.5399 40.495 35.7316 40.0915C34.9234 39.6879 32.3163 38.8402 29.2275 36.0967C26.8246 33.9625 25.1999 31.3273 24.7291 30.5202C24.2583 29.7131 24.6801 29.2798 25.0829 28.879C25.4476 28.5187 25.8911 27.9392 26.2966 27.4679C26.7048 27.0021 26.8382 26.6663 27.1103 26.1273C27.3797 25.591 27.2464 25.1198 27.0423 24.7163C26.8382 24.3154 25.2217 20.3531 24.5495 18.7417C23.8937 17.1708 23.2269 17.3848 22.7289 17.3604C22.2581 17.336 21.7193 17.3333 21.1777 17.3333C20.6389 17.3333 19.7626 17.5337 19.0224 18.3408C18.2822 19.1479 16.1922 21.0952 16.1922 25.0548C16.1922 29.0171 19.0904 32.844 19.4932 33.3802C19.896 33.9165 25.1945 42.0469 33.3069 45.5325C35.2363 46.3612 36.744 46.8569 37.9169 47.2279C39.8545 47.84 41.618 47.7533 43.0113 47.5475C44.5652 47.3173 47.7955 45.6002 48.4704 43.7206C49.1453 41.841 49.1453 40.2269 48.9412 39.8937C48.7398 39.5552 48.201 39.3548 47.3927 38.9512Z"
        fill="#25D366" />
</svg>